<?xml version="1.0" encoding="utf-8"?>
<!-- Generator: Adobe Illustrator 25.0.0, SVG Export Plug-In . SVG Version: 6.00 Build 0)  -->
<svg version="1.1" xmlns="http://www.w3.org/2000/svg" xmlns:xlink="http://www.w3.org/1999/xlink" x="0px" y="0px"
	 viewBox="0 0 106.3 60.2" style="enable-background:new 0 0 106.3 60.2;" xml:space="preserve">
<style type="text/css">
	.st0{fill:#00A0E9;}
	.st1{fill:none;}
</style>
<g id="元のテキスト">
	<g id="レイヤー_2_1_">
		<g id="レイヤー_1-2">
			<path class="st0" d="M36.4,26.2c0.4-0.5,0.9-0.6,1.2,0.1s0,2.1-1.1,3.7c-2.8,4.3-8.5,7.3-15,9.6C17.4,48,12,58.1,6.3,60
				c-1.5,0.7-3.2,0.2-4.1-1.2c-1.4-1.9-3.1-4.2-1.7-7.8c2.2-5.7,8.5-9.5,15.6-11.9c4.9-10.2,11.4-21.8,15.2-26.9
				c0.7-0.9,1.2-0.9,1.7-0.4c1.1,1.1,1.4,3.8-0.2,6.9c-1.8,3.5-7,12.1-10.2,18.3C28.1,34.6,32.8,30.9,36.4,26.2z M3.7,56.6
				c1,1.1,6.8-5.6,11.4-14.8C5.6,46.4,2.4,55.1,3.7,56.6z M38.2,11c-0.9,0.9-3,0.8-4-0.9c-1-1.4-0.8-3.3,0.4-4.5
				c1.2-1.1,3.2-0.4,4.1,1.4C39.5,8.2,39.3,9.9,38.2,11z"/>
			<path class="st0" d="M57.6,23.2c-1.5,5.3-6,11.6-11.4,13.2c-3.3,1-6.9-0.1-9.1-2.8c-3.2-3.6-2.1-9.1,1.2-14.1
				c2.7-4.3,7.1-7.9,11.5-8.1c1.9-0.2,3.8,0.6,4.9,2.1c1.7,1.9,3.8,2.4,3.4,6.9c-0.1,0.5-0.1,0.9-0.1,1.4c0.4,0,0.9-0.1,1.4-0.1
				s0.5,0.3,0.2,0.6C59,22.8,58.4,23.1,57.6,23.2z M51.5,21.6c-1.9-1.2-3.1-3.3-3.3-5.5c-2.2,1.6-4.1,3.6-5.6,5.9
				c-3,4.8-4.1,10.5-2.2,11.9s6.4-0.8,9.9-6.5c1-1.6,1.8-3.3,2.5-5C52.4,22.2,51.9,21.9,51.5,21.6z M54,16c-0.4-2-1.8-1.6-2.2,0.2
				c-0.3,1.7,0.3,3.3,1.6,4.4C54,19.1,54.2,17.6,54,16z"/>
			<path class="st0" d="M63.2,9.8C62.5,9,62.9,8.5,64,8.6c2,0,4,0,6-0.2c1.7-2.7,3.5-5.3,5.4-7.8c0.7-0.8,1.4-0.8,1.7,0
				C78,2.3,78,4.4,76.2,7.7c2.8-0.1,3.9,1.1,4.5,1.9s0.2,1.2-0.9,1.2c-1.9-0.1-3.8,0-5.6,0.2c-3.5,5-6.7,10.2-9.7,15.5
				c-2.4,4.6-1.6,8.4,1.4,8.6c3.2,0.1,7.3-4.3,10-9c0.4-0.8,1.2-0.9,1.5,0s0,2.1-0.7,3.6c-0.9,1.8-5.7,7.3-11.5,7.1
				c-4.8-0.1-8.6-4.8-5.1-12c1.5-3.1,4.5-8.4,7.6-13.3C66.1,11.6,64.5,11,63.2,9.8z"/>
			<path class="st0" d="M100.2,11.7c0.7-0.8,1.2-0.9,1.7-0.4c1.1,1.1,1.7,3.8-0.1,6.9c-1.6,2.8-5.2,7.5-6.9,10.8
				c-1.8,3.5-1.9,6.2,0.6,6.1c2.9-0.1,6.9-4.4,9.4-8.7c0.4-0.6,0.9-0.6,1.2-0.1c0.3,1.3,0.1,2.7-0.7,3.9c-1.9,3.4-6.4,6.9-10.4,6.7
				s-5.9-2.2-5.9-5.1c-2.3,2.6-5.6,4.9-9,4.9c-6.7,0-8.1-7.9-2.1-15.5C83.9,13.8,89.6,11,93.2,11c2.2-0.2,4.2,1.3,4.4,3.5
				c0,0.3,0,0.6,0,1C98.4,14.2,99.3,12.9,100.2,11.7z M94.5,14.2c-2.3-0.2-7.6,3.9-11.5,9.4c-3.8,5.4-4.8,10.9-2,11
				s6.7-3.9,10.4-9.5C95.9,18.3,96.6,14.4,94.5,14.2z"/>
		</g>
	</g>
</g>
<g id="パス">
	<path class="st1" d="M37.4,5.5l-5.6,9.8c0,0-13,23-13.1,24.3S10,58.4,5.3,58.6s-3.4-5.2-3.4-5.8c0-0.7,4.2-7.8,9.1-10.4
		c4.9-2.6,11-4.1,11-4.1s8.7-3.4,8.7-4.4s3.5-2.8,4.6-4.5c1.1-1.7,11.5-17.8,12.9-15.9c1.5,1.9-9.1,5.8-9.7,8.8s-3.1,9,0.9,12.3
		s8.9-1.4,8.9-1.4s6.4-5.9,6.6-10c0.2-4.1,1.3-5.9-0.5-9c-1.8-3.1-5.2,0-5.2,0s0.8,4.8,1.6,5.8c0.8,1,6.3,3.7,8,2
		c1.7-1.7,3-12.9,3-12.9l2,0.4l9.2,0.2c0,0,5.8-0.7,6.7,0.1c0.9,0.8,1.7,0.3,1.7,0.3L76.8-0.8c0,0-2,7.5-3,8.1S67,17.6,67,17.6
		s-6.2,9.7-5.6,11.3c0.6,1.5-0.7,5.6,2.8,6.6c3.6,1,6.2-1.2,7.2-2s5.6-4.3,5.6-4.3s2.6-7.3,4-7.6s5.7-7,6.5-6.6
		c0.8,0.4,4.5-3.3,6.9-2c2.4,1.3,2.8,4.4,2.2,5.4s4.6-3.2,5-4.6c0.4-1.5-3.8,6.2-3.8,6.2s-0.8-6.5-1.5-7c-0.7-0.5-7,0.1-9.4,3.6
		s-7.2,6.1-8,10c-0.8,3.9-3.3,5.3-1.8,7.1c1.5,1.8,4,2.6,5.9,1.5c1.9-1.2,5.4-3.7,6.5-4.4c1.1-0.7,7.2-10,7.3-10.5
		c0.1-0.5-5.2,10.2-4.9,11.9c0.3,1.7-0.1,3.9,2.5,3.6c2.6-0.3,5.5-0.8,6.2-1.8c0.7-1,5.5-5.7,5.7-8.1"/>
</g>
</svg>
